<svg xmlns="http://www.w3.org/2000/svg" version="1.1" xmlns:xlink="http://www.w3.org/1999/xlink" xmlns:svgjs="http://svgjs.dev/svgjs" width="1000" height="1000" viewBox="0 0 1000 1000"><rect width="1000" height="1000" fill="#ffffff"></rect><g transform="matrix(0.7,0,0,0.7,149.57575757575756,449.53206664130647)"><svg viewBox="0 0 396 57" data-background-color="#fafafa" preserveAspectRatio="xMidYMid meet" height="143" width="1000" xmlns="http://www.w3.org/2000/svg" xmlns:xlink="http://www.w3.org/1999/xlink"><g id="tight-bounds" transform="matrix(1,0,0,1,0.2400000000000091,0.2379840304248546)"><svg viewBox="0 0 395.52 56.52403193915031" height="56.52403193915031" width="395.52"><g><svg viewBox="0 0 508.487165847102 72.668246366782" height="56.52403193915031" width="395.52"><g><rect width="6.520693981081245" height="72.668246366782" x="89.37659233439446" y="0" fill="#000000" opacity="1" stroke-width="0" stroke="transparent" fill-opacity="1" class="rect-r$-0" data-fill-palette-color="primary" rx="1%" id="r$-0" data-palette-color="#130912"></rect></g><g transform="matrix(1,0,0,1,112.96716584710201,0.18076678200691987)"><svg viewBox="0 0 395.52 72.30671280276816" height="72.30671280276816" width="395.52"><g id="textblocktransform"><svg viewBox="0 0 395.52 72.30671280276816" height="72.30671280276816" width="395.52" id="textblock"><g><svg viewBox="0 0 395.52 72.30671280276816" height="72.30671280276816" width="395.52"><g transform="matrix(1,0,0,1,0,0)"><svg width="395.52" viewBox="3.49 -37.99 211.66 38.7" height="72.30671280276816" data-palette-color="#130912"><path d="M3.49 0L3.49-4.2 7.01-4.2 7.01-32.79 3.49-32.79 3.49-37.06 20.14-37.01Q22.39-37.01 24.37-36.17 26.34-35.33 27.81-33.87 29.27-32.42 30.11-30.44 30.96-28.47 30.96-26.2L30.96-26.2Q30.96-23.83 29.64-21.88 28.32-19.92 25.88-18.75L25.88-18.75Q27.08-18.12 28.05-17.27 29.03-16.43 29.71-15.43 30.4-14.43 30.77-13.31 31.15-12.18 31.15-11.01L31.15-11.01Q31.15-8.69 30.31-6.69 29.47-4.69 28-3.2 26.54-1.71 24.57-0.85 22.61 0 20.36 0L20.36 0 3.49 0ZM20.41-16.46L11.79-16.46 11.79-4.2 20.41-4.2Q21.58-4.2 22.58-4.79 23.58-5.37 24.34-6.31 25.1-7.25 25.52-8.45 25.95-9.64 25.95-10.89L25.95-10.89Q25.95-11.96 25.51-12.96 25.07-13.96 24.33-14.75 23.58-15.53 22.57-15.99 21.56-16.46 20.41-16.46L20.41-16.46ZM20.19-32.79L11.79-32.79 11.79-20.7 20.19-20.7Q21.36-20.7 22.38-21.17 23.39-21.63 24.13-22.41 24.88-23.19 25.32-24.22 25.76-25.24 25.76-26.34L25.76-26.34Q25.76-27.54 25.32-28.7 24.88-29.86 24.12-30.76 23.36-31.67 22.35-32.23 21.34-32.79 20.19-32.79L20.19-32.79ZM50.31 0L50.31-2.34Q48.87-1 47.13-0.15 45.38 0.71 43.16 0.71L43.16 0.71Q41.31 0.71 39.76 0.12 38.21-0.46 37.08-1.48 35.96-2.49 35.34-3.83 34.71-5.18 34.71-6.69L34.71-6.69Q34.71-8.3 35.19-9.55 35.67-10.79 36.46-11.71 37.25-12.62 38.32-13.24 39.38-13.87 40.54-14.25 41.7-14.62 42.91-14.78 44.11-14.94 45.21-14.94L45.21-14.94Q46.97-14.94 48.17-14.83 49.36-14.72 50.34-14.53L50.34-14.53 50.36-16.6Q50.36-17.94 49.97-18.93 49.58-19.92 48.87-20.57 48.17-21.22 47.18-21.53 46.19-21.85 44.97-21.85L44.97-21.85Q43.82-21.85 42.77-21.69 41.72-21.53 40.81-21.28 39.89-21.02 39.12-20.69 38.35-20.36 37.81-20L37.81-20 36.33-23.14Q37.23-23.73 38.3-24.23 39.38-24.73 40.56-25.09 41.75-25.44 42.98-25.65 44.21-25.85 45.41-25.85L45.41-25.85Q47.6-25.85 49.36-25.33 51.12-24.8 52.34-23.71 53.56-22.61 54.22-20.91 54.88-19.21 54.88-16.85L54.88-16.85 54.86-4.2 57.66-4.2 57.66 0 50.31 0ZM44.16-3.1L44.16-3.1Q45.07-3.1 45.97-3.32 46.87-3.54 47.68-3.92 48.48-4.3 49.17-4.8 49.85-5.3 50.31-5.83L50.31-5.83 50.34-11.55 45.07-11.55Q43.75-11.55 42.66-11.25 41.57-10.96 40.78-10.4 39.99-9.84 39.55-9.01 39.11-8.18 39.11-7.1L39.11-7.1Q39.11-6.1 39.48-5.36 39.84-4.61 40.51-4.11 41.18-3.61 42.11-3.36 43.04-3.1 44.16-3.1ZM77.7-33.79L77.7-37.99 85.69-37.99 85.69-4.2 89.4-4.2 89.4 0 81.15 0 81.15-2.08Q79.93-0.83 78.32-0.13 76.7 0.56 74.65 0.56L74.65 0.56Q72.09 0.56 69.88-0.33 67.67-1.22 66.05-2.94 64.42-4.66 63.51-7.17 62.59-9.67 62.59-12.89L62.59-12.89Q62.59-15.82 63.47-18.23 64.35-20.63 65.96-22.33 67.57-24.02 69.84-24.96 72.11-25.9 74.9-25.9L74.9-25.9Q76.73-25.9 78.24-25.5 79.76-25.1 81.15-24.1L81.15-24.1 81.15-33.79 77.7-33.79ZM75.24-3.39L75.24-3.39Q77.27-3.39 78.63-3.99 80-4.59 81.15-5.79L81.15-5.79 81.15-19.95Q79.93-20.97 78.34-21.44 76.75-21.9 75.09-21.9L75.09-21.9Q73.48-21.9 72.07-21.3 70.65-20.7 69.59-19.56 68.53-18.41 67.91-16.75 67.3-15.09 67.3-12.94L67.3-12.94Q67.3-10.6 67.89-8.81 68.48-7.03 69.53-5.82 70.58-4.61 72.04-4 73.51-3.39 75.24-3.39ZM94.79 0L94.79-4.2 98.31-4.2 98.31-32.79 94.79-32.79 94.79-37.06 111.44-37.01Q113.69-37.01 115.67-36.17 117.64-35.33 119.11-33.87 120.57-32.42 121.42-30.44 122.26-28.47 122.26-26.2L122.26-26.2Q122.26-23.83 120.94-21.88 119.62-19.92 117.18-18.75L117.18-18.75Q118.38-18.12 119.35-17.27 120.33-16.43 121.01-15.43 121.7-14.43 122.08-13.31 122.45-12.18 122.45-11.01L122.45-11.01Q122.45-8.69 121.61-6.69 120.77-4.69 119.3-3.2 117.84-1.71 115.87-0.85 113.91 0 111.66 0L111.66 0 94.79 0ZM111.71-16.46L103.09-16.46 103.09-4.2 111.71-4.2Q112.88-4.2 113.88-4.79 114.89-5.37 115.64-6.31 116.4-7.25 116.83-8.45 117.25-9.64 117.25-10.89L117.25-10.89Q117.25-11.96 116.81-12.96 116.37-13.96 115.63-14.75 114.89-15.53 113.87-15.99 112.86-16.46 111.71-16.46L111.71-16.46ZM111.49-32.79L103.09-32.79 103.09-20.7 111.49-20.7Q112.66-20.7 113.68-21.17 114.69-21.63 115.43-22.41 116.18-23.19 116.62-24.22 117.06-25.24 117.06-26.34L117.06-26.34Q117.06-27.54 116.62-28.7 116.18-29.86 115.42-30.76 114.67-31.67 113.65-32.23 112.64-32.79 111.49-32.79L111.49-32.79ZM141.62 0L141.62-2.34Q140.18-1 138.43-0.15 136.68 0.71 134.46 0.71L134.46 0.71Q132.61 0.71 131.06 0.12 129.51-0.46 128.38-1.48 127.26-2.49 126.64-3.83 126.02-5.18 126.02-6.69L126.02-6.69Q126.02-8.3 126.49-9.55 126.97-10.79 127.76-11.71 128.55-12.62 129.62-13.24 130.68-13.87 131.84-14.25 133-14.62 134.21-14.78 135.41-14.94 136.51-14.94L136.51-14.94Q138.27-14.94 139.47-14.83 140.66-14.72 141.64-14.53L141.64-14.53 141.66-16.6Q141.66-17.94 141.27-18.93 140.88-19.92 140.18-20.57 139.47-21.22 138.48-21.53 137.49-21.85 136.27-21.85L136.27-21.85Q135.12-21.85 134.07-21.69 133.02-21.53 132.11-21.28 131.19-21.02 130.42-20.69 129.65-20.36 129.12-20L129.12-20 127.63-23.14Q128.53-23.73 129.6-24.23 130.68-24.73 131.86-25.09 133.05-25.44 134.28-25.65 135.51-25.85 136.71-25.85L136.71-25.85Q138.91-25.85 140.66-25.33 142.42-24.8 143.64-23.71 144.86-22.61 145.52-20.91 146.18-19.21 146.18-16.85L146.18-16.85 146.16-4.2 148.96-4.2 148.96 0 141.62 0ZM135.46-3.1L135.46-3.1Q136.37-3.1 137.27-3.32 138.17-3.54 138.98-3.92 139.78-4.3 140.47-4.8 141.15-5.3 141.62-5.83L141.62-5.83 141.64-11.55 136.37-11.55Q135.05-11.55 133.96-11.25 132.88-10.96 132.08-10.4 131.29-9.84 130.85-9.01 130.41-8.18 130.41-7.1L130.41-7.1Q130.41-6.1 130.78-5.36 131.14-4.61 131.81-4.11 132.49-3.61 133.41-3.36 134.34-3.1 135.46-3.1ZM170.74 0L170.74-4.2 174.3-4.2 174.3-15.75Q174.3-18.65 172.83-20.15 171.35-21.66 168.59-21.66L168.59-21.66Q167-21.66 165.39-20.9 163.78-20.14 162.34-19.02L162.34-19.02 162.34-4.2 165.91-4.2 165.91 0 154.09 0 154.09-4.2 157.6-4.2 157.6-21.09 154.09-21.09 154.09-25.29 162.15-25.29 162.15-22.31 162.19-22.31Q163-23.02 163.92-23.66 164.83-24.29 165.83-24.76 166.83-25.22 167.92-25.49 169.01-25.76 170.2-25.76L170.2-25.76Q172.23-25.76 173.86-25.2 175.5-24.63 176.65-23.49 177.8-22.34 178.42-20.54 179.04-18.75 179.04-16.31L179.04-16.31 179.04-4.2 182.56-4.2 182.56 0 170.74 0ZM187.24-33.79L187.24-37.99 196.15-37.99 196.15-33.79 196.1-33.79 196.1-14.89 200.5-14.89 206.5-21.09 204.99-21.09 204.99-25.29 214.58-25.29 214.58-21.09 211.39-21.09 203.7-13.16 212.09-4.2 215.15-4.2 215.15 0 209.8 0 199.45-11.3 196.1-11.3 196.1-4.2 198.2-4.2 198.2 0 187.39 0 187.39-4.2 191.54-4.2 191.54-33.79 187.24-33.79Z" opacity="1" transform="matrix(1,0,0,1,0,0)" fill="#000000" class="wordmark-text-0" data-fill-palette-color="primary" id="text-0"></path></svg></g></svg></g></svg></g></svg></g><g transform="matrix(1,0,0,1,0,0.18076678200691987)"><svg viewBox="0 0 72.30671280276816 72.30671280276816" height="72.30671280276816" width="72.30671280276816"><g><svg xmlns="http://www.w3.org/2000/svg" xmlns:xlink="http://www.w3.org/1999/xlink" version="1.1" x="0" y="0" viewBox="0 0 16 16" style="enable-background:new 0 0 16 16;" xml:space="preserve" height="72.30671280276816" width="72.30671280276816" class="icon-icon-0" data-fill-palette-color="accent" id="icon-0"><path d="M8 0C3.582 0 0 3.582 0 8c0 4.418 3.582 8 8 8 4.418 0 8-3.582 8-8C16 3.582 12.418 0 8 0zM5.24 5.555c0.683 0 1.236 0.553 1.236 1.236S5.923 8.027 5.24 8.027 4.004 7.474 4.004 6.791 4.558 5.555 5.24 5.555zM11.791 12.388c-0.096 0.091-0.218 0.136-0.34 0.136-0.131 0-0.262-0.051-0.359-0.154C10.275 11.506 9.178 11.031 8 11.031c-1.18 0-2.277 0.475-3.091 1.337-0.187 0.198-0.501 0.208-0.7 0.02-0.2-0.187-0.209-0.501-0.021-0.698C5.191 10.626 6.545 10.041 8 10.041c1.452 0 2.807 0.585 3.811 1.646C11.999 11.886 11.99 12.2 11.791 12.388zM10.76 8.027c-0.683 0-1.236-0.553-1.236-1.236s0.554-1.236 1.236-1.236 1.236 0.553 1.236 1.236S11.442 8.027 10.76 8.027z" fill="#000000" data-fill-palette-color="accent"></path></svg></g></svg></g></svg></g><defs></defs></svg><rect width="395.52" height="56.52403193915031" fill="none" stroke="none" visibility="hidden"></rect></g></svg></g></svg>